<?xml version="1.0" encoding="UTF-8"?>
<svg id="Layer_1" data-name="Layer 1" xmlns="http://www.w3.org/2000/svg" xmlns:xlink="http://www.w3.org/1999/xlink" viewBox="0 0 2775.1 2387.4">
  <defs>
    <style>
      .cls-1 {
        fill: url(#linear-gradient);
      }

      .cls-2 {
        fill: #2b2a2c;
      }

      .cls-3 {
        fill: url(#linear-gradient-2);
      }
    </style>
    <linearGradient id="linear-gradient" x1="1172.2" y1="1193.4" x2="2739.5" y2="1193.4" gradientUnits="userSpaceOnUse">
      <stop offset=".3" stop-color="#86e927"/>
      <stop offset=".5" stop-color="#80eb24"/>
      <stop offset=".8" stop-color="#71f21f"/>
      <stop offset="1" stop-color="#67f71b"/>
    </linearGradient>
    <linearGradient id="linear-gradient-2" x1="1852.9" y1="466.5" x2="2749.4" y2="466.5" gradientUnits="userSpaceOnUse">
      <stop offset=".3" stop-color="#9ee331"/>
      <stop offset=".4" stop-color="#a1e536"/>
      <stop offset=".6" stop-color="#aceb45"/>
      <stop offset=".8" stop-color="#bef55e"/>
      <stop offset="1" stop-color="#d1ff78"/>
    </linearGradient>
  </defs>
  <g>
    <path class="cls-2" d="m870.2,760.4h578s167-80,93-215c-79-81-488-489-488-489,0,0-25-40-108-40h-475.5c-23.6,0-47.1,2.6-70.2,7.9C296.1,48.2,35.2,135,35.2,404.4v1510.4c0,61.8,13.8,122.8,40.8,178.4,54.7,112.5,169.4,276.2,374.2,276.2h1152.3l-727.3-729v185s-2,64-38,64h-245s-49,6-49-63V534.4s7-35,38-35h248s41.5,1,41.5,41.5l-.5,219.5Z"/>
    <path class="cls-1" d="m1904.5,1625.9h-578s-167,80-93,215c79,81,488,489,488,489,0,0,25,40,108,40h475.5c23.6,0,47.1-2.6,70.2-7.9,103.5-23.9,364.3-110.7,364.3-380.1V471.5c0-61.8-13.8-122.8-40.8-178.4-54.7-112.5-169.4-276.2-374.2-276.2h-1152.3l727.3,729v-185s2-64,38-64h245s49-6,49,63v1292s-7,35-38,35h-248s-41.5-1-41.5-41.5l.5-219.5Z"/>
  </g>
  <path class="cls-2" d="m870.3,760.7h578s167-80,93-215c-79-81-488-489-488-489,0,0-25-40-108-40h-475.5c-23.6,0-47.1,2.6-70.2,7.9C296.1,48.5,35.3,135.4,35.3,404.7v1510.4c0,61.8,13.8,122.8,40.8,178.4,54.7,112.5,169.4,276.2,374.2,276.2h1152.3l-727.3-729v185s-2,64-38,64h-245s-49,6-49-63V534.7s7-35,38-35h248s41.5,1,41.5,41.5l-.5,219.5Z"/>
  <path class="cls-3" d="m2324.6,17.2h-481.4l896.4,898.6v-443.9c0-61.8-13.8-122.8-40.8-178.4-54.7-112.5-169.4-276.2-374.2-276.2Z"/>
</svg>